<?xml version="1.0" standalone="no"?>
<!DOCTYPE svg PUBLIC "-//W3C//DTD SVG 20010904//EN"
 "http://www.w3.org/TR/2001/REC-SVG-20010904/DTD/svg10.dtd">
<svg version="1.0" xmlns="http://www.w3.org/2000/svg"
 width="643.000000pt" height="637.000000pt" viewBox="0 0 643.000000 637.000000"
 preserveAspectRatio="xMidYMid meet">

<g transform="translate(0.000000,637.000000) scale(0.100000,-0.100000)"
fill="#000000" stroke="none">
<path d="M3240 4540 c0 -733 0 -740 20 -740 20 0 20 7 20 740 0 733 0 740 -20
740 -20 0 -20 -7 -20 -740z"/>
<path d="M4130 4165 c-386 -386 -522 -527 -513 -536 8 -8 16 -8 29 -1 39 22
1046 1040 1040 1051 -4 6 -13 11 -19 11 -7 0 -248 -236 -537 -525z"/>
<path d="M1844 4619 c-4 -7 203 -221 509 -527 457 -457 517 -514 532 -502 15
12 -40 70 -497 527 -282 282 -518 513 -525 513 -6 0 -15 -5 -19 -11z"/>
<path d="M1397 3203 c-4 -3 -7 -12 -7 -20 0 -11 128 -13 726 -13 686 0 725 1
722 18 -3 16 -46 17 -719 20 -394 1 -719 -1 -722 -5z"/>
<path d="M3737 3183 c-4 -3 -7 -386 -7 -851 l0 -844 313 5 c342 5 399 13 535
69 256 106 407 300 467 597 14 67 16 117 12 245 -6 186 -18 239 -84 375 -110
230 -342 368 -672 401 -114 11 -554 14 -564 3z m698 -257 c185 -64 294 -191
340 -400 26 -115 17 -311 -19 -422 -63 -196 -206 -328 -401 -369 -43 -9 -126
-15 -217 -15 l-148 0 0 621 0 621 183 -4 c165 -4 189 -7 262 -32z"/>
<path d="M2470 2356 c-284 -282 -514 -518 -512 -525 2 -6 9 -11 15 -11 7 0
243 231 526 514 456 456 530 537 493 536 -4 0 -239 -232 -522 -514z"/>
</g>
</svg>
